# xmcd
#
# Track frame offsets:
#	150
#	25285
#	50346
#	69214
#	88082
#	106846
#	125583
#	136303
#	147036
#	163367
#	179699
#	199481
#	219245
#	237852
#	256458
#	275701
#	294906
#	310818
#
# Disc length: 4161 seconds
#
# Revision: 1
# Processed by: cddbd v1.5.2PL0 Copyright (c) Steve Scherf et al.
# Submitted via: audiograbber 1.83.01
#
DISCID=12103f12
DTITLE=Play Along - HAL Leonard Blues Rock VOL. 14
DYEAR=1900
DGENRE=Blues
TTITLE0=Blue on Black
TTITLE1=Blue on Black - BT
TTITLE2=Crossfire
TTITLE3=Crossfire - BT
TTITLE4=Cross Road Blues
TTITLE5=Cross Road Blues - BT
TTITLE6=The House is Rockin
TTITLE7=The House is Rockin - BT
TTITLE8=La Grange
TTITLE9=La Grange - BT
TTITLE10=Move it on Over
TTITLE11=Move it on Over - BT
TTITLE12=Roadhouse Blues
TTITLE13=Roadhouse Blues - BT
TTITLE14=Statesboro Blues
TTITLE15=Statesboro Blues - BT
TTITLE16=Tune
TTITLE17=Daten-CD
EXTD=
EXTT0=
EXTT1=
EXTT2=
EXTT3=
EXTT4=
EXTT5=
EXTT6=
EXTT7=
EXTT8=
EXTT9=
EXTT10=
EXTT11=
EXTT12=
EXTT13=
EXTT14=
EXTT15=
EXTT16=
EXTT17=
PLAYORDER=
